/* XPM */
static char * close_inactive_xpm[] = {
"32 35 3 1",
" 	c None",
".	c #6C7070",
"+	c #8D9091",
"................................",
"................................",
"................................",
"................................",
"................................",
"................................",
"................................",
"................................",
"................................",
"................................",
"................................",
"................................",
"................................",
"............++....++............",
"............+++..+++............",
".............++++++.............",
"..............++++..............",
"..............++++..............",
".............++++++.............",
"............+++..+++............",
"............++....++............",
"................................",
"................................",
"................................",
"................................",
"................................",
"................................",
"................................",
"................................",
"................................",
"................................",
"................................",
"................................",
"................................",
"................................"};
