/* XPM */
static char * close_pressed_xpm[] = {
"32 35 4 1",
" 	c None",
".	c #414949",
"+	c #AA0000",
"@	c #FFFFFF",
"................................",
"................................",
"................................",
"................................",
"................................",
"....++++++++++++++++++++++++....",
"....++++++++++++++++++++++++....",
"....++++++++++++++++++++++++....",
"....++++++++++++++++++++++++....",
"....++++++++++++++++++++++++....",
"....++++++++++++++++++++++++....",
"....++++++++++++++++++++++++....",
"....++++++++++++++++++++++++....",
"....++++++++@@++++@@++++++++....",
"....++++++++@@@++@@@++++++++....",
"....+++++++++@@@@@@+++++++++....",
"....++++++++++@@@@++++++++++....",
"....++++++++++@@@@++++++++++....",
"....+++++++++@@@@@@+++++++++....",
"....++++++++@@@++@@@++++++++....",
"....++++++++@@++++@@++++++++....",
"....++++++++++++++++++++++++....",
"....++++++++++++++++++++++++....",
"....++++++++++++++++++++++++....",
"....++++++++++++++++++++++++....",
"....++++++++++++++++++++++++....",
"....++++++++++++++++++++++++....",
"....++++++++++++++++++++++++....",
"....++++++++++++++++++++++++....",
"................................",
"................................",
"................................",
"................................",
"................................",
"................................"};
