/* XPM */
static char * hide_prelight_xpm[] = {
"32 35 4 1",
" 	c None",
".	c #414949",
"+	c #394040",
"@	c #FFFFFF",
"................................",
"................................",
"................................",
"................................",
"................................",
"....++++++++++++++++++++++++....",
"....++++++++++++++++++++++++....",
"....++++++++++++++++++++++++....",
"....++++++++++++++++++++++++....",
"....++++++++++++++++++++++++....",
"....++++++++++++++++++++++++....",
"....++++++++++++++++++++++++....",
"....++++++++++++++++++++++++....",
"....++++++++++++++++++++++++....",
"....++++++++++++++++++++++++....",
"....++++++++++++++++++++++++....",
"....++++++++++++++++++++++++....",
"....++++++++++++++++++++++++....",
"....++++++++++++++++++++++++....",
"....++++++++@@@@@@@@++++++++....",
"....++++++++@@@@@@@@++++++++....",
"....++++++++++++++++++++++++....",
"....++++++++++++++++++++++++....",
"....++++++++++++++++++++++++....",
"....++++++++++++++++++++++++....",
"....++++++++++++++++++++++++....",
"....++++++++++++++++++++++++....",
"....++++++++++++++++++++++++....",
"....++++++++++++++++++++++++....",
"................................",
"................................",
"................................",
"................................",
"................................",
"................................"};
