/* XPM */
static char * maximize_active_xpm[] = {
"32 35 3 1",
" 	c None",
".	c #414949",
"+	c #FFFFFF",
"................................",
"................................",
"................................",
"................................",
"................................",
"................................",
"................................",
"................................",
"................................",
"................................",
"................................",
"................................",
"................................",
"............++++++++............",
"............++++++++............",
"............++....++............",
"............++....++............",
"............++....++............",
"............++....++............",
"............++++++++............",
"............++++++++............",
"................................",
"................................",
"................................",
"................................",
"................................",
"................................",
"................................",
"................................",
"................................",
"................................",
"................................",
"................................",
"................................",
"................................"};
