/* XPM */
static char * maximize_pressed_xpm[] = {
"32 35 4 1",
" 	c None",
".	c #414949",
"+	c #303636",
"@	c #FFFFFF",
"................................",
"................................",
"................................",
"................................",
"................................",
"....++++++++++++++++++++++++....",
"....++++++++++++++++++++++++....",
"....++++++++++++++++++++++++....",
"....++++++++++++++++++++++++....",
"....++++++++++++++++++++++++....",
"....++++++++++++++++++++++++....",
"....++++++++++++++++++++++++....",
"....++++++++++++++++++++++++....",
"....++++++++@@@@@@@@++++++++....",
"....++++++++@@@@@@@@++++++++....",
"....++++++++@@++++@@++++++++....",
"....++++++++@@++++@@++++++++....",
"....++++++++@@++++@@++++++++....",
"....++++++++@@++++@@++++++++....",
"....++++++++@@@@@@@@++++++++....",
"....++++++++@@@@@@@@++++++++....",
"....++++++++++++++++++++++++....",
"....++++++++++++++++++++++++....",
"....++++++++++++++++++++++++....",
"....++++++++++++++++++++++++....",
"....++++++++++++++++++++++++....",
"....++++++++++++++++++++++++....",
"....++++++++++++++++++++++++....",
"....++++++++++++++++++++++++....",
"................................",
"................................",
"................................",
"................................",
"................................",
"................................"};
